<svg xmlns="http://www.w3.org/2000/svg" xmlns:xlink="http://www.w3.org/1999/xlink" xmlns:inkscape="http://www.inkscape.org/namespaces/inkscape" version="1.1" viewBox="331.25 145.70 182.99 306.85">
<defs>
<clipPath id="clip_1">
<path transform="matrix(1,0,0,-1,0,595.276)" d="M0 595.276H841.89V0H0Z"/>
</clipPath>
</defs>
<g inkscape:groupmode="layer" inkscape:label="Layer 1">
<g clip-path="url(#clip_1)">
<path transform="matrix(1,0,0,-1,335.7502,378.5063)" d="M0 0C.503 24.036 13.479 52.486 48.451 70.008 67.297 79.451 88.612 89.136 88.612 89.136 88.612 89.136 54.638 134.436 67.357 155.81 69.788 159.896 73.018 161.607 74.857 162.926L88.766 114.323 99.487 160.362 113.012 114.094 126.922 166.32C133.22 165.606 139.32 164.236 145.637 160.406 164.161 149.172 174.49 128.419 168.873 100.736 164.606 79.686 145.315 67.758 135.295 62.878 135.239 63.107 134.368 67.281 133.389 72.137 132.522 76.428 131.788 79.652 131.788 79.652 131.788 79.652 147.099 91.459 149.44 109.208 151.874 127.632 140.187 136.247 140.187 136.247 135.967 127.712 134.136 122.461 132.384 110.874 130.505 98.449 131.788 79.652 131.788 79.652 126.666 82.526 119.868 82.534 115.712 80.992 109.761 78.781 108.962 79.382 105.828 78.658 104.936 78.447 104.354 77.778 104.577 76.713 104.714 76.063 105.351 75.648 107.116 75.412 110.163 75.004 115.341 75.511 118.505 76.174 119.626 76.403 120.27 75.951 118.766 75.307 112.43 72.582 104.014 69.356 97.672 67.461 94.47 66.507 93.077 66.408 93.176 64.915 93.281 63.348 97.04 64.005 98.589 64.277 102.323 64.928 106.85 65.857 110.436 67.114 111.73 67.572 111.625 66.872 110.684 66.432 107.736 65.064 103.642 63.825 99.233 62.611 96.7 61.912 93.393 61.67 93.479 60.047 93.572 58.369 96.675 58.852 99.592 59.28 104.045 59.936 108.683 60.976 112.411 61.967 113.446 62.246 113.539 61.602 112.733 61.36 108.665 60.134 103.828 58.524 100.676 57.737 98.075 57.087 95.833 56.511 95.994 55.13 96.118 54.046 98.198 54.207 100.985 54.721 106.794 55.787 111.099 56.97 114.059 57.775 115.229 58.097 115.093 57.378 114.294 57.106 112.114 56.363 108.621 55.118 104.738 54.17 102.738 53.681 99.908 53.012 100.025 51.848 100.168 50.343 103.611 50.956 105.314 51.216 113.78 52.517 128.198 56.524 135.301 62.871 137.729 50.461 140.701 38.02 131.492 27.861 121.814 17.185 67.521 10.969 55.26 4.667 39.726-3.318 41.808-20.477 47.157-28.503 57.875-44.584 76.814-38.279 76.814-38.279 76.814-38.279 73.277-27.018 77.691-13.173 84.029 6.706 93.503 11.529 93.503 11.529 97.702 5.797 101.652-1.705 101.887-7.492 102.15-13.954 101.67-20.601 98.726-27.823 106.564-21.984 112.362-19.31 119.691-18.508 131.843-17.178 140.867-19.445 140.867-19.445 137.996-33.392 124.296-42.73 116.689-46.72 102.354-54.237 87.153-52.379 87.153-52.379 87.153-52.379 63.705-70.044 35.48-57.811 13.163-48.138-.499-23.821 0 0"/>
<path transform="matrix(1,0,0,-1,453.8974,167.7555)" d="M0 0C-6.421 11.555-10.469 18.056-23.004 18.056-31.619 18.056-36.997 10.788-40.765 1.097-43.08-4.863-44.486-6.888-47.433-10.136-49.289-12.182-49.167-13.136-47.483-13.39-43.552-14.003-41.853-14.068-41.853-14.068-41.853-14.068-43.31-25.957-38.02-28.681-33.887-30.809-27.27-30.387-27.27-30.387-27.27-30.387-27.359-38.113-27.081-39.924-26.715-42.332-24.209-45.332-18.524-45.032-11.317-44.651-9.458-39.965-9.247-37.684-9.032-35.337-9.137-29.927-9.137-29.927-9.137-29.927 8.677-26.671 9.748-19.173 10.809-11.746 5.012-9.015 0 0"/>
<path transform="matrix(1,0,0,-1,441.1207,169.74951)" d="M0 0C0 0-4.979-4.898-11.12-4.898-17.262-4.898-22.241 0-22.241 0-22.241 0-17.262 4.898-11.12 4.898-4.979 4.898 0 0 0 0" fill="#ffffff"/>
<path transform="matrix(1,0,0,-1,434.8985,169.74951)" d="M0 0C0-2.705-2.193-4.898-4.898-4.898-7.604-4.898-9.797-2.705-9.797 0-9.797 2.705-7.604 4.898-4.898 4.898-2.193 4.898 0 2.705 0 0"/>
</g>
</g>
</svg>
